<?xml version="1.0" encoding="UTF-8"?>
<svg width="36" height="36" viewBox="0 0 36 36" fill="none" xmlns="http://www.w3.org/2000/svg">
    <path fill-rule="evenodd" clip-rule="evenodd" d="M18 0C8.05 0 0 8.05 0 18c0 7.95 5.15 14.7 12.3 17.1.9.15 1.2-.4 1.2-.85v-3.05c-5 1.1-6.05-2.4-6.05-2.4-.8-2.05-2-2.6-2-2.6-1.65-1.1.1-1.1.1-1.1 1.8.1 2.8 1.85 2.8 1.85 1.6 2.75 4.2 1.95 5.25 1.5.15-1.15.65-1.95 1.15-2.4-4-.45-8.2-2-8.2-8.9 0-1.95.7-3.55 1.85-4.8-.2-.45-.8-2.3.15-4.8 0 0 1.5-.5 4.9 1.8 1.45-.4 2.95-.6 4.45-.6 1.5 0 3 .2 4.45.6 3.4-2.3 4.9-1.8 4.9-1.8 1 2.5.35 4.35.2 4.8 1.15 1.25 1.85 2.85 1.85 4.8 0 6.9-4.2 8.45-8.2 8.9.65.55 1.2 1.65 1.2 3.3v4.9c0 .45.3 1 1.2.85C30.85 32.7 36 25.95 36 18c0-9.95-8.05-18-18-18z" fill="#181616"/>
</svg> 