<?xml version="1.0" encoding="UTF-8"?>
<svg width="36" height="36" viewBox="0 0 36 36" fill="none" xmlns="http://www.w3.org/2000/svg">
    <path d="M18 21.5a3.5 3.5 0 100-7 3.5 3.5 0 000 7z" fill="#61DAFB"/>
    <path d="M18 25.5c11.5 0 17.5-5 17.5-7.5S29.5 10.5 18 10.5.5 15.5.5 18s6 7.5 17.5 7.5zm0-14c10.5 0 16.5 4.5 16.5 6.5S28.5 24.5 18 24.5 1.5 20 1.5 18 7.5 11.5 18 11.5z" fill="#61DAFB"/>
    <path d="M10.5 32.5c1 0 5-7 7.5-14.5C20.5 11 22 4.5 21 4.5S16 11.5 13.5 19C11 26 9.5 32.5 10.5 32.5zm-.5-1c-.5 0 1-6 3.5-13S18 5 19 5s-1 6-3.5 13-5 13.5-5.5 13.5z" fill="#61DAFB"/>
    <path d="M25.5 32.5c1 0-1.5-6.5-4-13.5C19 11.5 14 4.5 13 4.5s1.5 6.5 4 13.5c2.5 7.5 7.5 14.5 8.5 14.5zm-.5-1c-.5 0-5.5-6.5-8-13.5S13 5 14 5s5.5 6.5 8 13.5 3.5 13 3 13z" fill="#61DAFB"/>
</svg> 