<?xml version="1.0" encoding="UTF-8"?>
<svg width="36" height="36" viewBox="0 0 36 36" fill="none" xmlns="http://www.w3.org/2000/svg">
    <path fill-rule="evenodd" clip-rule="evenodd" d="M3 6a3 3 0 013-3h24a3 3 0 013 3v24a3 3 0 01-3 3H6a3 3 0 01-3-3V6zm4.5 3a1.5 1.5 0 100 3 1.5 1.5 0 000-3zm4.5 0a1.5 1.5 0 100 3 1.5 1.5 0 000-3zm4.5 0a1.5 1.5 0 100 3 1.5 1.5 0 000-3zM6 15h24v12a3 3 0 01-3 3H9a3 3 0 01-3-3V15zm4.5 3l4.5 4.5-4.5 4.5 1.5 1.5 6-6-6-6-1.5 1.5zm9 7.5h6v2h-6v-2z" fill="#000"/>
</svg> 